# xmcd
# 
# Track frame offsets:
#     150
#     17562
#     36080
#     77647
#     111087
# 
# Disc length: 2156
# 
# Revision: 4
# Processed by: cddbd v1.5.2PL0 Copyright (c) Steve Scherf et al.
# Submitted via: fre:ac v1.0.17
# 
DISCID=2f086a05
DTITLE=Jennifer Lopez - Feelin' So Good [US]
DYEAR=2000
DGENRE=Club
TTITLE0=01Feelin' So Good [Thunderpuss Radio Mix]
TTITLE1=02Feelin' So Good [HQ2 Radio Mix]
TTITLE2=03Feelin' So Good [Thunderpuss Club Mix]
TTITLE3=04Feelin' So Good [HQ2 Club Mix]
TTITLE4=05Waiting For Tonight [Hex's Momentous Club Mix]
EXTD=YEAR: 2000
EXTT0=
EXTT1=
EXTT2=
EXTT3=
EXTT4=
PLAYORDER=
